<?xml version="1.0" standalone="yes"?>

<svg version="1.1" viewBox="0.0 0.0 555.0 696.0" fill="none" stroke="none" stroke-linecap="square" stroke-miterlimit="10" xmlns="http://www.w3.org/2000/svg" xmlns:xlink="http://www.w3.org/1999/xlink"><clipPath id="p.0"><path d="m0 0l555.0 0l0 696.0l-555.0 0l0 -696.0z" clip-rule="nonzero"></path></clipPath><g clip-path="url(#p.0)"><path fill="#000000" fill-opacity="0.0" d="m0 0l555.6116 0l0 696.6378l-555.6116 0z" fill-rule="nonzero"></path><path fill="#fff2cc" d="m180.34514 321.38202l0 0c0 -3.780548 3.064743 -6.845276 6.845291 -6.845276l92.703125 0c1.8154907 0 3.55661 0.7211914 4.8403625 2.0049438c1.2837219 1.2837219 2.0049133 3.0248718 2.0049133 4.840332l0 27.38031c0 3.780548 -3.0647278 6.845276 -6.845276 6.845276l-92.703125 0l0 0c-3.780548 0 -6.845291 -3.0647278 -6.845291 -6.845276z" fill-rule="nonzero"></path><path stroke="#000000" stroke-width="2.0" stroke-linejoin="round" stroke-linecap="butt" d="m180.34514 321.38202l0 0c0 -3.780548 3.064743 -6.845276 6.845291 -6.845276l92.703125 0c1.8154907 0 3.55661 0.7211914 4.8403625 2.0049438c1.2837219 1.2837219 2.0049133 3.0248718 2.0049133 4.840332l0 27.38031c0 3.780548 -3.0647278 6.845276 -6.845276 6.845276l-92.703125 0l0 0c-3.780548 0 -6.845291 -3.0647278 -6.845291 -6.845276z" fill-rule="nonzero"></path><path fill="#000000" d="m206.29851 336.9922l2.671875 0.84375q-0.609375 2.21875 -2.046875 3.3125q-1.421875 1.078125 -3.609375 1.078125q-2.703125 0 -4.453125 -1.84375q-1.734375 -1.859375 -1.734375 -5.078125q0 -3.390625 1.75 -5.265625q1.75 -1.875 4.609375 -1.875q2.5 0 4.046875 1.46875q0.9375 0.875 1.390625 2.5l-2.71875 0.65625q-0.234375 -1.0625 -1.0 -1.671875q-0.765625 -0.609375 -1.859375 -0.609375q-1.515625 0 -2.453125 1.09375q-0.9375 1.078125 -0.9375 3.5q0 2.578125 0.921875 3.6875q0.921875 1.09375 2.40625 1.09375q1.109375 0 1.890625 -0.6875q0.78125 -0.703125 1.125 -2.203125zm17.035446 5.0l-2.984375 0l-1.1875 -3.09375l-5.4375 0l-1.125 3.09375l-2.90625 0l5.296875 -13.59375l2.90625 0l5.4375 13.59375zm-5.046875 -5.375l-1.875 -5.046875l-1.84375 5.046875l3.71875 0zm6.269821 5.375l0 -13.59375l5.78125 0q2.1875 0 3.171875 0.359375q0.984375 0.359375 1.578125 1.296875q0.59375 0.9375 0.59375 2.15625q0 1.53125 -0.90625 2.53125q-0.890625 0.984375 -2.6875 1.25q0.890625 0.515625 1.46875 1.140625q0.578125 0.625 1.5625 2.203125l1.671875 2.65625l-3.296875 0l-1.984375 -2.953125q-1.046875 -1.59375 -1.4375 -2.0q-0.390625 -0.421875 -0.828125 -0.5625q-0.4375 -0.15625 -1.390625 -0.15625l-0.546875 0l0 5.671875l-2.75 0zm2.75 -7.84375l2.03125 0q1.96875 0 2.453125 -0.171875q0.5 -0.171875 0.78125 -0.578125q0.28125 -0.40625 0.28125 -1.015625q0 -0.6875 -0.375 -1.109375q-0.359375 -0.421875 -1.03125 -0.53125q-0.328125 -0.046875 -2.0 -0.046875l-2.140625 0l0 3.453125zm10.707321 -5.75l5.015625 0q1.703125 0 2.59375 0.25q1.1875 0.359375 2.046875 1.265625q0.859375 0.890625 1.296875 2.203125q0.453125 1.296875 0.453125 3.203125q0 1.6875 -0.421875 2.890625q-0.515625 1.484375 -1.453125 2.40625q-0.71875 0.703125 -1.9375 1.09375q-0.90625 0.28125 -2.421875 0.28125l-5.171875 0l0 -13.59375zm2.75 2.296875l0 9.0l2.046875 0q1.140625 0 1.65625 -0.125q0.671875 -0.171875 1.109375 -0.5625q0.4375 -0.40625 0.71875 -1.3125q0.28125 -0.921875 0.28125 -2.5q0 -1.578125 -0.28125 -2.421875q-0.28125 -0.84375 -0.78125 -1.3125q-0.5 -0.46875 -1.265625 -0.640625q-0.578125 -0.125 -2.25 -0.125l-1.234375 0zm16.832336 11.296875l-2.6093903 0l0 -9.828125q-1.4375 1.34375 -3.375 1.984375l0 -2.375q1.03125 -0.328125 2.21875 -1.25q1.203125 -0.9375 1.640625 -2.1875l2.1250153 0l0 13.65625zm10.375702 0l-2.609375 0l0 -9.828125q-1.4375 1.34375 -3.375 1.984375l0 -2.375q1.03125 -0.328125 2.21875 -1.25q1.203125 -0.9375 1.640625 -2.1875l2.125 0l0 13.65625z" fill-rule="nonzero"></path><path fill="#fff2cc" d="m287.45013 321.3807l0 0c0 -3.780548 3.0647278 -6.845276 6.845276 -6.845276l92.703125 0c1.8154907 0 3.55661 0.7211914 4.8403625 2.0049438c1.2837219 1.2837219 2.0049438 3.0248718 2.0049438 4.840332l0 27.38031c0 3.780548 -3.0647583 6.845276 -6.8453064 6.845276l-92.703125 0l0 0c-3.780548 0 -6.845276 -3.0647278 -6.845276 -6.845276z" fill-rule="nonzero"></path><path stroke="#000000" stroke-width="2.0" stroke-linejoin="round" stroke-linecap="butt" d="m287.45013 321.3807l0 0c0 -3.780548 3.0647278 -6.845276 6.845276 -6.845276l92.703125 0c1.8154907 0 3.55661 0.7211914 4.8403625 2.0049438c1.2837219 1.2837219 2.0049438 3.0248718 2.0049438 4.840332l0 27.38031c0 3.780548 -3.0647583 6.845276 -6.8453064 6.845276l-92.703125 0l0 0c-3.780548 0 -6.845276 -3.0647278 -6.845276 -6.845276z" fill-rule="nonzero"></path><path fill="#000000" d="m312.49097 328.39713l5.4375 0q1.609375 0 2.40625 0.140625q0.796875 0.125 1.421875 0.546875q0.625 0.421875 1.03125 1.140625q0.421875 0.703125 0.421875 1.59375q0 0.953125 -0.515625 1.75q-0.5 0.796875 -1.390625 1.1875q1.25 0.375 1.90625 1.25q0.671875 0.859375 0.671875 2.046875q0 0.921875 -0.4375 1.796875q-0.421875 0.875 -1.171875 1.40625q-0.75 0.515625 -1.84375 0.640625q-0.6875 0.078125 -3.3125 0.09375l-4.625 0l0 -13.59375zm2.75 2.25l0 3.15625l1.796875 0q1.609375 0 2.0 -0.046875q0.703125 -0.09375 1.09375 -0.484375q0.40625 -0.40625 0.40625 -1.0625q0 -0.640625 -0.34375 -1.03125q-0.34375 -0.390625 -1.03125 -0.484375q-0.40625 -0.046875 -2.34375 -0.046875l-1.578125 0zm0 5.421875l0 3.625l2.546875 0q1.484375 0 1.875 -0.078125q0.609375 -0.109375 1.0 -0.53125q0.390625 -0.4375 0.390625 -1.171875q0 -0.609375 -0.296875 -1.03125q-0.296875 -0.421875 -0.859375 -0.609375q-0.5625 -0.203125 -2.4375 -0.203125l-2.21875 0zm19.41043 0.921875l2.671875 0.84375q-0.609375 2.21875 -2.046875 3.3125q-1.421875 1.078125 -3.609375 1.078125q-2.703125 0 -4.453125 -1.84375q-1.734375 -1.859375 -1.734375 -5.078125q0 -3.390625 1.75 -5.265625q1.75 -1.875 4.609375 -1.875q2.5 0 4.046875 1.46875q0.9375 0.875 1.390625 2.5l-2.71875 0.65625q-0.234375 -1.0625 -1.0 -1.671875q-0.765625 -0.609375 -1.859375 -0.609375q-1.515625 0 -2.453125 1.09375q-0.9375 1.078125 -0.9375 3.5q0 2.578125 0.921875 3.6875q0.921875 1.09375 2.40625 1.09375q1.109375 0 1.890625 -0.6875q0.78125 -0.703125 1.125 -2.203125zm4.8479614 5.0l0 -13.484375l2.75 0l0 11.1875l6.828125 0l0 2.296875l-9.578125 0zm17.427216 0l-2.609375 0l0 -9.828125q-1.4375 1.34375 -3.375 1.984375l0 -2.375q1.03125 -0.328125 2.21875 -1.25q1.203125 -0.9375 1.640625 -2.1875l2.125 0l0 13.65625zm8.110077 -13.65625q1.96875 0 3.078125 1.40625q1.328125 1.671875 1.328125 5.546875q0 3.859375 -1.328125 5.546875q-1.109375 1.390625 -3.078125 1.390625q-1.984375 0 -3.203125 -1.53125q-1.21875 -1.53125 -1.21875 -5.4375q0 -3.84375 1.34375 -5.53125q1.09375 -1.390625 3.078125 -1.390625zm0 2.15625q-0.484375 0 -0.859375 0.3125q-0.359375 0.296875 -0.5625 1.078125q-0.265625 1.015625 -0.265625 3.40625q0 2.390625 0.234375 3.28125q0.25 0.890625 0.609375 1.1875q0.359375 0.296875 0.84375 0.296875q0.46875 0 0.828125 -0.296875q0.375 -0.296875 0.59375 -1.078125q0.265625 -1.0 0.265625 -3.390625q0 -2.390625 -0.25 -3.28125q-0.234375 -0.90625 -0.609375 -1.203125q-0.359375 -0.3125 -0.828125 -0.3125z" fill-rule="nonzero"></path><path fill="#fff2cc" d="m243.75853 362.45157l0 0c0 -3.7805176 3.064743 -6.845276 6.845276 -6.845276l92.70314 0c1.8154907 0 3.55661 0.7211914 4.8403625 2.0049438c1.2837219 1.2837524 2.0049133 3.0248718 2.0049133 4.840332l0 27.38031c0 3.780548 -3.0647278 6.845276 -6.845276 6.845276l-92.70314 0l0 0c-3.7805328 0 -6.845276 -3.0647278 -6.845276 -6.845276z" fill-rule="nonzero"></path><path stroke="#000000" stroke-width="2.0" stroke-linejoin="round" stroke-linecap="butt" d="m243.75853 362.45157l0 0c0 -3.7805176 3.064743 -6.845276 6.845276 -6.845276l92.70314 0c1.8154907 0 3.55661 0.7211914 4.8403625 2.0049438c1.2837219 1.2837524 2.0049133 3.0248718 2.0049133 4.840332l0 27.38031c0 3.780548 -3.0647278 6.845276 -6.845276 6.845276l-92.70314 0l0 0c-3.7805328 0 -6.845276 -3.0647278 -6.845276 -6.845276z" fill-rule="nonzero"></path><path fill="#000000" d="m267.2084 383.06174l0 -13.59375l4.109375 0l2.46875 9.265625l2.4375 -9.265625l4.125 0l0 13.59375l-2.546875 0l0 -10.703125l-2.703125 10.703125l-2.640625 0l-2.703125 -10.703125l0 10.703125l-2.546875 0zm27.837677 0l-2.984375 0l-1.1875 -3.09375l-5.4375 0l-1.125 3.09375l-2.90625 0l5.296875 -13.59375l2.90625 0l5.4375 13.59375zm-5.046875 -5.375l-1.875 -5.046875l-1.84375 5.046875l3.71875 0zm6.3323364 5.375l0 -13.484375l2.75 0l0 11.1875l6.828125 0l0 2.296875l-9.578125 0zm14.380371 0l0 -11.296875l-4.0312805 0l0 -2.296875l10.8125305 0l0 2.296875l-4.03125 0l0 11.296875l-2.75 0zm14.442841 0l-2.609375 0l0 -9.828125q-1.4375 1.34375 -3.375 1.984375l0 -2.375q1.03125 -0.328125 2.21875 -1.25q1.203125 -0.9375 1.640625 -2.1875l2.125 0l0 13.65625z" fill-rule="nonzero"></path><path fill="#fff2cc" d="m150.80315 438.69962l0 0c0 -3.780548 3.064743 -6.845276 6.845291 -6.845276l92.703125 0c1.8154907 0 3.55661 0.7211914 4.8403473 2.0049133c1.2837372 1.2837524 2.0049286 3.0248718 2.0049286 4.8403625l0 27.38031c0 3.780548 -3.0647278 6.845276 -6.845276 6.845276l-92.703125 0l0 0c-3.780548 0 -6.845291 -3.0647278 -6.845291 -6.845276z" fill-rule="nonzero"></path><path stroke="#000000" stroke-width="2.0" stroke-linejoin="round" stroke-linecap="butt" d="m150.80315 438.69962l0 0c0 -3.780548 3.064743 -6.845276 6.845291 -6.845276l92.703125 0c1.8154907 0 3.55661 0.7211914 4.8403473 2.0049133c1.2837372 1.2837524 2.0049286 3.0248718 2.0049286 4.8403625l0 27.38031c0 3.780548 -3.0647278 6.845276 -6.845276 6.845276l-92.703125 0l0 0c-3.780548 0 -6.845291 -3.0647278 -6.845291 -6.845276z" fill-rule="nonzero"></path><path fill="#000000" d="m181.03183 445.716l5.4375 0q1.609375 0 2.40625 0.140625q0.796875 0.125 1.421875 0.546875q0.625 0.421875 1.03125 1.140625q0.421875 0.703125 0.421875 1.59375q0 0.953125 -0.515625 1.75q-0.5 0.796875 -1.390625 1.1875q1.25 0.375 1.90625 1.25q0.671875 0.859375 0.671875 2.046875q0 0.921875 -0.4375 1.796875q-0.421875 0.875 -1.171875 1.40625q-0.75 0.515625 -1.84375 0.640625q-0.6875 0.078125 -3.3125 0.09375l-4.625 0l0 -13.59375zm2.75 2.25l0 3.15625l1.796875 0q1.609375 0 2.0 -0.046875q0.703125 -0.09375 1.09375 -0.484375q0.40625 -0.40625 0.40625 -1.0625q0 -0.640625 -0.34375 -1.03125q-0.34375 -0.390625 -1.03125 -0.484375q-0.40625 -0.046875 -2.34375 -0.046875l-1.578125 0zm0 5.421875l0 3.625l2.546875 0q1.484375 0 1.875 -0.078125q0.609375 -0.109375 1.0 -0.53125q0.390625 -0.4375 0.390625 -1.171875q0 -0.609375 -0.296875 -1.03125q-0.296875 -0.421875 -0.859375 -0.609375q-0.5625 -0.203125 -2.4375 -0.203125l-2.21875 0zm19.410446 0.921875l2.671875 0.84375q-0.609375 2.21875 -2.046875 3.3125q-1.421875 1.078125 -3.609375 1.078125q-2.703125 0 -4.453125 -1.84375q-1.734375 -1.859375 -1.734375 -5.078125q0 -3.390625 1.75 -5.265625q1.75 -1.875 4.609375 -1.875q2.5 0 4.046875 1.46875q0.9375 0.875 1.390625 2.5l-2.71875 0.65625q-0.234375 -1.0625 -1.0 -1.671875q-0.765625 -0.609375 -1.859375 -0.609375q-1.515625 0 -2.453125 1.09375q-0.9375 1.078125 -0.9375 3.5q0 2.578125 0.921875 3.6875q0.921875 1.09375 2.40625 1.09375q1.109375 0 1.890625 -0.6875q0.78125 -0.703125 1.125 -2.203125zm4.847946 5.0l0 -13.484375l2.75 0l0 11.1875l6.828125 0l0 2.296875l-9.578125 0zm19.58348 -10.265625l-2.53125 0.28125q-0.09375 -0.78125 -0.484375 -1.15625q-0.375 -0.375 -1.0 -0.375q-0.828125 0 -1.40625 0.75q-0.5625 0.734375 -0.71875 3.078125q0.984375 -1.140625 2.421875 -1.140625q1.640625 0 2.796875 1.25q1.171875 1.234375 1.171875 3.203125q0 2.078125 -1.234375 3.34375q-1.21875 1.265625 -3.140625 1.265625q-2.0625 0 -3.390625 -1.59375q-1.3125 -1.609375 -1.3125 -5.25q0 -3.75 1.375 -5.390625q1.390625 -1.65625 3.59375 -1.65625q1.546875 0 2.5625 0.875q1.015625 0.859375 1.296875 2.515625zm-5.90625 5.6875q0 1.265625 0.578125 1.953125q0.59375 0.6875 1.34375 0.6875q0.71875 0 1.203125 -0.5625q0.484375 -0.5625 0.484375 -1.84375q0 -1.328125 -0.53125 -1.9375q-0.515625 -0.625 -1.296875 -0.625q-0.75 0 -1.265625 0.59375q-0.515625 0.578125 -0.515625 1.734375z" fill-rule="nonzero"></path><path fill="#000000" fill-opacity="0.0" d="m52.410763 58.82152l485.3858 0" fill-rule="nonzero"></path><path stroke="#ff9900" stroke-width="4.0" stroke-linejoin="round" stroke-linecap="butt" stroke-dasharray="4.0,12.0" d="m52.410763 58.82152l485.3858 0" fill-rule="nonzero"></path><path fill="#000000" fill-opacity="0.0" d="m52.410763 42.82152l485.3858 0" fill-rule="nonzero"></path><path stroke="#ff9900" stroke-width="4.0" stroke-linejoin="round" stroke-linecap="butt" stroke-dasharray="4.0,12.0" d="m52.410763 42.82152l485.3858 0" fill-rule="nonzero"></path><path fill="#000000" fill-opacity="0.0" d="m44.410763 50.82152l485.3858 0" fill-rule="nonzero"></path><path stroke="#ff9900" stroke-width="4.0" stroke-linejoin="round" stroke-linecap="butt" stroke-dasharray="4.0,12.0" d="m44.410763 50.82152l485.3858 0" fill-rule="nonzero"></path><path fill="#fff2cc" d="m44.412075 37.13137l0 0c0 -3.7805443 3.0647354 -6.8452816 6.8452797 -6.8452816l92.70314 0c1.8154755 0 3.5565948 0.7211971 4.8403473 2.0049381c1.2837372 1.2837372 2.0049286 3.0248604 2.0049286 4.8403435l0 27.380302c0 3.780548 -3.0647278 6.8452835 -6.845276 6.8452835l-92.70314 0l0 0c-3.7805443 0 -6.8452797 -3.0647354 -6.8452797 -6.8452835z" fill-rule="nonzero"></path><path stroke="#000000" stroke-width="2.0" stroke-linejoin="round" stroke-linecap="butt" d="m44.412075 37.13137l0 0c0 -3.7805443 3.0647354 -6.8452816 6.8452797 -6.8452816l92.70314 0c1.8154755 0 3.5565948 0.7211971 4.8403473 2.0049381c1.2837372 1.2837372 2.0049286 3.0248604 2.0049286 4.8403435l0 27.380302c0 3.780548 -3.0647278 6.8452835 -6.845276 6.8452835l-92.70314 0l0 0c-3.7805443 0 -6.8452797 -3.0647354 -6.8452797 -6.8452835z" fill-rule="nonzero"></path><path fill="#000000" d="m78.79013 44.14777l5.4375 0q1.609375 0 2.40625 0.140625q0.796875 0.125 1.421875 0.546875q0.625 0.421875 1.03125 1.140625q0.421875 0.703125 0.421875 1.59375q0 0.953125 -0.515625 1.75q-0.5 0.796875 -1.390625 1.1875q1.25 0.375 1.90625 1.25q0.671875 0.859375 0.671875 2.046875q0 0.921875 -0.4375 1.796875q-0.421875 0.875 -1.171875 1.40625q-0.75 0.515625 -1.84375 0.640625q-0.6875 0.078125 -3.3125 0.09375l-4.625 0l0 -13.59375zm2.75 2.25l0 3.15625l1.796875 0q1.609375 0 2.0 -0.046875q0.703125 -0.09375 1.09375 -0.484375q0.40625 -0.40625 0.40625 -1.0625q0 -0.640625 -0.34375 -1.03125q-0.34375 -0.390625 -1.03125 -0.484375q-0.40625 -0.046875 -2.34375 -0.046875l-1.578125 0zm0 5.421875l0 3.625l2.546875 0q1.484375 0 1.875 -0.078125q0.609375 -0.109375 1.0 -0.53125q0.390625 -0.4375 0.390625 -1.171875q0 -0.609375 -0.296875 -1.03125q-0.296875 -0.421875 -0.859375 -0.609375q-0.5625 -0.203125 -2.4375 -0.203125l-2.21875 0zm19.410446 0.921875l2.671875 0.84375q-0.609375 2.21875 -2.046875 3.3125q-1.421875 1.078125 -3.609375 1.078125q-2.703125 0 -4.453125 -1.84375q-1.734375 -1.859375 -1.734375 -5.078125q0 -3.390625 1.75 -5.265625q1.75 -1.875 4.609375 -1.875q2.5 0 4.046875 1.46875q0.9375 0.875 1.390625 2.5l-2.71875 0.65625q-0.234375 -1.0625 -1.0 -1.671875q-0.765625 -0.609375 -1.859375 -0.609375q-1.515625 0 -2.453125 1.09375q-0.9375 1.078125 -0.9375 3.5q0 2.578125 0.921875 3.6875q0.921875 1.09375 2.40625 1.09375q1.109375 0 1.890625 -0.6875q0.78125 -0.703125 1.125 -2.203125zm4.785446 5.0l0 -13.59375l5.7812424 0q2.1875 0 3.171875 0.359375q0.984375 0.359375 1.578125 1.296875q0.59375 0.9375 0.59375 2.15625q0 1.53125 -0.90625 2.53125q-0.890625 0.984375 -2.6875 1.25q0.890625 0.515625 1.46875 1.140625q0.578125 0.625 1.5625 2.203125l1.671875 2.65625l-3.296875 0l-1.984375 -2.953125q-1.046875 -1.59375 -1.4375 -2.0q-0.390625 -0.421875 -0.828125 -0.5625q-0.43749237 -0.15625 -1.3906174 -0.15625l-0.546875 0l0 5.671875l-2.75 0zm2.75 -7.84375l2.0312424 0q1.96875 0 2.453125 -0.171875q0.5 -0.171875 0.78125 -0.578125q0.28125 -0.40625 0.28125 -1.015625q0 -0.6875 -0.375 -1.109375q-0.359375 -0.421875 -1.03125 -0.53125q-0.328125 -0.046875 -2.0 -0.046875l-2.1406174 0l0 3.453125z" fill-rule="nonzero"></path><path fill="#fff2cc" d="m17.813648 362.20486l0 0c0 -3.780548 3.0647373 -6.845276 6.8452816 -6.845276l92.70314 0c1.8154831 0 3.5566025 0.7211914 4.8403397 2.0049133c1.2837448 1.2837524 2.0049362 3.0248718 2.0049362 4.8403625l0 27.38031c0 3.780548 -3.0647354 6.845276 -6.845276 6.845276l-92.70314 0l0 0c-3.7805443 0 -6.8452816 -3.0647278 -6.8452816 -6.845276z" fill-rule="nonzero"></path><path stroke="#000000" stroke-width="2.0" stroke-linejoin="round" stroke-linecap="butt" d="m17.813648 362.20486l0 0c0 -3.780548 3.0647373 -6.845276 6.8452816 -6.845276l92.70314 0c1.8154831 0 3.5566025 0.7211914 4.8403397 2.0049133c1.2837448 1.2837524 2.0049362 3.0248718 2.0049362 4.8403625l0 27.38031c0 3.780548 -3.0647354 6.845276 -6.845276 6.845276l-92.70314 0l0 0c-3.7805443 0 -6.8452816 -3.0647278 -6.8452816 -6.845276z" fill-rule="nonzero"></path><path fill="#000000" d="m39.723396 382.815l0 -13.59375l4.421875 0q2.5 0 3.265625 0.203125q1.15625 0.296875 1.9375 1.328125q0.796875 1.015625 0.796875 2.640625q0 1.25 -0.453125 2.109375q-0.453125 0.859375 -1.15625 1.34375q-0.703125 0.484375 -1.421875 0.640625q-0.984375 0.203125 -2.84375 0.203125l-1.796875 0l0 5.125l-2.75 0zm2.75 -11.296875l0 3.859375l1.5 0q1.625 0 2.171875 -0.21875q0.546875 -0.21875 0.859375 -0.671875q0.3125 -0.453125 0.3125 -1.046875q0 -0.75 -0.4375 -1.234375q-0.4375 -0.484375 -1.09375 -0.59375q-0.5 -0.09375 -1.984375 -0.09375l-1.328125 0zm9.615448 11.296875l0 -13.59375l2.75 0l0 13.59375l-2.75 0zm5.308304 0l0 -13.59375l2.75 0l0 6.03125l5.546875 -6.03125l3.6875 0l-5.125 5.296875l5.40625 8.296875l-3.5625 0l-3.734375 -6.390625l-2.21875 2.28125l0 4.109375l-2.75 0zm12.769821 -3.609375l2.515625 -0.3125q0.125 0.96875 0.65625 1.484375q0.53125 0.5 1.28125 0.5q0.796875 0 1.34375 -0.609375q0.5625 -0.609375 0.5625 -1.640625q0 -0.984375 -0.53125 -1.5625q-0.53125 -0.578125 -1.28125 -0.578125q-0.5 0 -1.203125 0.203125l0.28125 -2.125q1.0625 0.015625 1.609375 -0.46875q0.5625 -0.484375 0.5625 -1.296875q0 -0.6875 -0.40625 -1.09375q-0.40625 -0.40625 -1.078125 -0.40625q-0.671875 0 -1.140625 0.46875q-0.46875 0.46875 -0.578125 1.359375l-2.40625 -0.421875q0.25 -1.234375 0.75 -1.96875q0.515625 -0.734375 1.421875 -1.15625q0.90625 -0.421875 2.03125 -0.421875q1.90625 0 3.078125 1.21875q0.953125 1.0 0.953125 2.265625q0 1.796875 -1.953125 2.859375q1.15625 0.25 1.859375 1.125q0.703125 0.875 0.703125 2.109375q0 1.78125 -1.3125 3.046875q-1.296875 1.265625 -3.25 1.265625q-1.84375 0 -3.0625 -1.0625q-1.21875 -1.0625 -1.40625 -2.78125zm11.047592 3.609375l0 -13.59375l5.78125 0q2.1875 0 3.171875 0.359375q0.984375 0.359375 1.578125 1.296875q0.59375 0.9375 0.59375 2.15625q0 1.53125 -0.90625 2.53125q-0.890625 0.984375 -2.6875 1.25q0.890625 0.515625 1.46875 1.140625q0.578125 0.625 1.5625 2.203125l1.671875 2.65625l-3.296875 0l-1.984375 -2.953125q-1.046875 -1.59375 -1.4375 -2.0q-0.390625 -0.421875 -0.828125 -0.5625q-0.4375 -0.15625 -1.390625 -0.15625l-0.546875 0l0 5.671875l-2.75 0zm2.75 -7.84375l2.03125 0q1.96875 0 2.453125 -0.171875q0.5 -0.171875 0.78125 -0.578125q0.28125 -0.40625 0.28125 -1.015625q0 -0.6875 -0.375 -1.109375q-0.359375 -0.421875 -1.03125 -0.53125q-0.328125 -0.046875 -2.0 -0.046875l-2.140625 0l0 3.453125zm16.816696 7.84375l-2.609375 0l0 -9.828125q-1.4375 1.34375 -3.375 1.984375l0 -2.375q1.03125 -0.328125 2.21875 -1.25q1.203125 -0.9375 1.640625 -2.1875l2.125 0l0 13.65625z" fill-rule="nonzero"></path><path fill="#000000" fill-opacity="0.0" d="m97.608925 71.35696l-26.598427 245.07086" fill-rule="nonzero"></path><path stroke="#000000" stroke-width="2.0" stroke-linejoin="round" stroke-linecap="butt" d="m97.608925 71.35696l-25.303627 233.14093" fill-rule="evenodd"></path><path fill="#000000" stroke="#000000" stroke-width="2.0" stroke-linecap="butt" d="m69.02112 304.14145l2.3048553 9.379639l4.263504 -8.666748z" fill-rule="evenodd"></path><path fill="#000000" fill-opacity="0.0" d="m230.59973 128.68504l66.35565 -38.443573" fill-rule="nonzero"></path><path stroke="#000000" stroke-width="2.0" stroke-linejoin="round" stroke-linecap="butt" d="m230.59973 128.68504l55.97238 -32.427956" fill-rule="evenodd"></path><path fill="#000000" stroke="#000000" stroke-width="2.0" stroke-linecap="butt" d="m288.22815 99.115486l6.197357 -7.40831l-9.50943 1.6915131z" fill-rule="evenodd"></path><path fill="#fff2cc" d="m338.42783 438.69962l0 0c0 -3.780548 3.0647278 -6.845276 6.845276 -6.845276l92.703125 0c1.8154907 0 3.55661 0.7211914 4.8403625 2.0049133c1.2837219 1.2837524 2.0049438 3.0248718 2.0049438 4.8403625l0 27.38031c0 3.780548 -3.0647583 6.845276 -6.8453064 6.845276l-92.703125 0l0 0c-3.780548 0 -6.845276 -3.0647278 -6.845276 -6.845276z" fill-rule="nonzero"></path><path stroke="#000000" stroke-width="2.0" stroke-linejoin="round" stroke-linecap="butt" d="m338.42783 438.69962l0 0c0 -3.780548 3.0647278 -6.845276 6.845276 -6.845276l92.703125 0c1.8154907 0 3.55661 0.7211914 4.8403625 2.0049133c1.2837219 1.2837524 2.0049438 3.0248718 2.0049438 4.8403625l0 27.38031c0 3.780548 -3.0647583 6.845276 -6.8453064 6.845276l-92.703125 0l0 0c-3.780548 0 -6.845276 -3.0647278 -6.845276 -6.845276z" fill-rule="nonzero"></path><path fill="#000000" d="m364.93262 459.30975l0 -13.59375l2.75 0l0 13.59375l-2.75 0zm5.277069 0l0 -13.59375l5.78125 0q2.1875 0 3.171875 0.359375q0.984375 0.359375 1.578125 1.296875q0.59375 0.9375 0.59375 2.15625q0 1.53125 -0.90625 2.53125q-0.890625 0.984375 -2.6875 1.25q0.890625 0.515625 1.46875 1.140625q0.578125 0.625 1.5625 2.203125l1.671875 2.65625l-3.296875 0l-1.984375 -2.953125q-1.046875 -1.59375 -1.4375 -2.0q-0.390625 -0.421875 -0.828125 -0.5625q-0.4375 -0.15625 -1.390625 -0.15625l-0.546875 0l0 5.671875l-2.75 0zm2.75 -7.84375l2.03125 0q1.96875 0 2.453125 -0.171875q0.5 -0.171875 0.78125 -0.578125q0.28125 -0.40625 0.28125 -1.015625q0 -0.6875 -0.375 -1.109375q-0.359375 -0.421875 -1.03125 -0.53125q-0.328125 -0.046875 -2.0 -0.046875l-2.140625 0l0 3.453125zm22.97293 7.84375l-2.984375 0l-1.1875 -3.09375l-5.4375 0l-1.125 3.09375l-2.90625 0l5.296875 -13.59375l2.90625 0l5.4375 13.59375zm-5.046875 -5.375l-1.875 -5.046875l-1.84375 5.046875l3.71875 0zm6.3010864 5.375l0 -13.59375l2.75 0l0 6.03125l5.5468445 -6.03125l3.6875 0l-5.1249695 5.296875l5.4062195 8.296875l-3.5625 0l-3.7343445 -6.390625l-2.21875 2.28125l0 4.109375l-2.75 0zm17.97293 0l0 -2.734375l-5.5625 0l0 -2.28125l5.890625 -8.640625l2.1875 0l0 8.625l1.6875 0l0 2.296875l-1.6875 0l0 2.734375l-2.515625 0zm0 -5.03125l0 -4.640625l-3.125 4.640625l3.125 0z" fill-rule="nonzero"></path><path fill="#cfe2f3" d="m251.00262 524.521l106.39371 0l0 63.77954l-106.39371 0z" fill-rule="nonzero"></path><path stroke="#000000" stroke-width="2.0" stroke-linejoin="round" stroke-linecap="butt" d="m251.00262 524.521l106.39371 0l0 63.77954l-106.39371 0z" fill-rule="nonzero"></path><path fill="#000000" d="m279.6983 552.33075l0 -13.59375l2.671875 0l5.578125 9.078125l0 -9.078125l2.546875 0l0 13.59375l-2.765625 0l-5.46875 -8.875l0 8.875l-2.5625 0zm13.472961 0l0 -13.59375l9.3125 0l0 2.296875l-6.578125 0l0 3.21875l5.6875 0l0 2.296875l-5.6875 0l0 5.78125l-2.734375 0zm11.411591 0l0 -13.59375l2.75 0l0 6.03125l5.546875 -6.03125l3.6875305 0l-5.1250305 5.296875l5.4062805 8.296875l-3.5625305 0l-3.734375 -6.390625l-2.21875 2.28125l0 4.109375l-2.75 0zm13.441711 -13.59375l5.4375 0q1.609375 0 2.40625 0.140625q0.796875 0.125 1.421875 0.546875q0.625 0.421875 1.03125 1.140625q0.421875 0.703125 0.421875 1.59375q0 0.953125 -0.515625 1.75q-0.5 0.796875 -1.390625 1.1875q1.25 0.375 1.90625 1.25q0.671875 0.859375 0.671875 2.046875q0 0.921875 -0.4375 1.796875q-0.421875 0.875 -1.171875 1.40625q-0.75 0.515625 -1.84375 0.640625q-0.6875 0.078125 -3.3125 0.09375l-4.625 0l0 -13.59375zm2.75 2.25l0 3.15625l1.796875 0q1.609375 0 2.0 -0.046875q0.703125 -0.09375 1.09375 -0.484375q0.40625 -0.40625 0.40625 -1.0625q0 -0.640625 -0.34375 -1.03125q-0.34375 -0.390625 -1.03125 -0.484375q-0.40625 -0.046875 -2.34375 -0.046875l-1.578125 0zm0 5.421875l0 3.625l2.546875 0q1.484375 0 1.875 -0.078125q0.609375 -0.109375 1.0 -0.53125q0.390625 -0.4375 0.390625 -1.171875q0 -0.609375 -0.296875 -1.03125q-0.296875 -0.421875 -0.859375 -0.609375q-0.5625 -0.203125 -2.4375 -0.203125l-2.21875 0z" fill-rule="nonzero"></path><path fill="#000000" d="m268.17474 564.4714l2.421875 0l0 1.453125q0.46875 -0.734375 1.28125 -1.203125q0.8125 -0.46875 1.796875 -0.46875q1.703125 0 2.90625 1.34375q1.203125 1.34375 1.203125 3.75q0 2.46875 -1.21875 3.84375q-1.203125 1.359375 -2.921875 1.359375q-0.8125 0 -1.484375 -0.3125q-0.65625 -0.328125 -1.390625 -1.125l0 4.96875l-2.59375 0l0 -13.609375zm2.578125 4.765625q0 1.65625 0.65625 2.453125q0.65625 0.796875 1.59375 0.796875q0.921875 0 1.515625 -0.71875q0.609375 -0.734375 0.609375 -2.40625q0 -1.546875 -0.625 -2.296875q-0.625 -0.75 -1.53125 -0.75q-0.96875 0 -1.59375 0.734375q-0.625 0.734375 -0.625 2.1875zm10.833466 -1.75l-2.359375 -0.4375q0.390625 -1.421875 1.359375 -2.109375q0.984375 -0.6875 2.90625 -0.6875q1.734375 0 2.59375 0.421875q0.859375 0.40625 1.203125 1.046875q0.34375 0.625 0.34375 2.328125l-0.03125 3.046875q0 1.296875 0.125 1.921875q0.125 0.609375 0.46875 1.3125l-2.578125 0q-0.09375 -0.265625 -0.25 -0.765625q-0.0625 -0.234375 -0.09375 -0.3125q-0.65625 0.65625 -1.421875 0.984375q-0.765625 0.3125 -1.625 0.3125q-1.515625 0 -2.40625 -0.8125q-0.875 -0.828125 -0.875 -2.09375q0 -0.84375 0.390625 -1.484375q0.40625 -0.65625 1.125 -1.0q0.71875 -0.359375 2.078125 -0.625q1.828125 -0.328125 2.53125 -0.625l0 -0.265625q0 -0.75 -0.375 -1.0625q-0.359375 -0.328125 -1.390625 -0.328125q-0.703125 0 -1.09375 0.28125q-0.390625 0.265625 -0.625 0.953125zm3.484375 2.109375q-0.5 0.171875 -1.59375 0.40625q-1.078125 0.234375 -1.40625 0.453125q-0.515625 0.359375 -0.515625 0.921875q0 0.546875 0.40625 0.953125q0.40625 0.390625 1.046875 0.390625q0.703125 0 1.34375 -0.46875q0.46875 -0.359375 0.625 -0.859375q0.09375 -0.34375 0.09375 -1.28125l0 -0.515625zm9.453857 -5.125l0 2.078125l-1.78125 0l0 3.984375q0 1.203125 0.046875 1.40625q0.0625 0.1875 0.234375 0.328125q0.1875 0.125 0.453125 0.125q0.359375 0 1.046875 -0.25l0.21875 2.015625q-0.90625 0.390625 -2.0625 0.390625q-0.703125 0 -1.265625 -0.234375q-0.5625 -0.234375 -0.828125 -0.609375q-0.265625 -0.375 -0.375 -1.015625q-0.078125 -0.453125 -0.078125 -1.84375l0 -4.296875l-1.203125 0l0 -2.078125l1.203125 0l0 -1.953125l2.609375 -1.515625l0 3.46875l1.78125 0zm4.306427 -3.734375l0 5.0q1.25 -1.484375 3.015625 -1.484375q0.890625 0 1.609375 0.34375q0.734375 0.328125 1.09375 0.84375q0.375 0.515625 0.5 1.15625q0.140625 0.625 0.140625 1.953125l0 5.78125l-2.609375 0l0 -5.203125q0 -1.546875 -0.15625 -1.96875q-0.140625 -0.421875 -0.515625 -0.65625q-0.375 -0.25 -0.9375 -0.25q-0.65625 0 -1.171875 0.3125q-0.5 0.3125 -0.734375 0.953125q-0.234375 0.640625 -0.234375 1.875l0 4.9375l-2.609375 0l0 -13.59375l2.609375 0zm10.630341 13.59375l-3.125 -9.859375l2.53125 0l1.859375 6.46875l1.6875 -6.46875l2.515625 0l1.6406555 6.46875l1.890625 -6.46875l2.5625 0l-3.15625 9.859375l-2.515625 0l-1.6875305 -6.34375l-1.671875 6.34375l-2.53125 0zm14.620819 -6.84375l-2.359375 -0.4375q0.390625 -1.421875 1.359375 -2.109375q0.984375 -0.6875 2.90625 -0.6875q1.734375 0 2.59375 0.421875q0.859375 0.40625 1.203125 1.046875q0.34375 0.625 0.34375 2.328125l-0.03125 3.046875q0 1.296875 0.125 1.921875q0.125 0.609375 0.46875 1.3125l-2.578125 0q-0.09375 -0.265625 -0.25 -0.765625q-0.0625 -0.234375 -0.09375 -0.3125q-0.65625 0.65625 -1.421875 0.984375q-0.765625 0.3125 -1.625 0.3125q-1.515625 0 -2.40625 -0.8125q-0.875 -0.828125 -0.875 -2.09375q0 -0.84375 0.390625 -1.484375q0.40625 -0.65625 1.125 -1.0q0.71875 -0.359375 2.078125 -0.625q1.828125 -0.328125 2.53125 -0.625l0 -0.265625q0 -0.75 -0.375 -1.0625q-0.359375 -0.328125 -1.390625 -0.328125q-0.703125 0 -1.09375 0.28125q-0.390625 0.265625 -0.625 0.953125zm3.484375 2.109375q-0.5 0.171875 -1.59375 0.40625q-1.078125 0.234375 -1.40625 0.453125q-0.515625 0.359375 -0.515625 0.921875q0 0.546875 0.40625 0.953125q0.40625 0.390625 1.046875 0.390625q0.703125 0 1.34375 -0.46875q0.46875 -0.359375 0.625 -0.859375q0.09375 -0.34375 0.09375 -1.28125l0 -0.515625zm3.7038574 -5.125l2.78125 0l2.359375 7.0l2.296875 -7.0l2.703125 0l-3.484375 9.484375l-0.625 1.71875q-0.34375 0.859375 -0.65625 1.3125q-0.296875 0.46875 -0.703125 0.75q-0.40625 0.28125 -1.0 0.4375q-0.59375 0.15625 -1.328125 0.15625q-0.75 0 -1.46875 -0.15625l-0.234375 -2.046875q0.609375 0.125 1.09375 0.125q0.921875 0 1.34375 -0.53125q0.4375 -0.53125 0.671875 -1.359375l-3.75 -9.890625z" fill-rule="nonzero"></path><path fill="#000000" fill-opacity="0.0" d="m296.95538 396.67847l7.2440796 127.84253" fill-rule="nonzero"></path><path stroke="#000000" stroke-width="2.0" stroke-linejoin="round" stroke-linecap="butt" d="m296.95538 396.67847l6.565216 115.861755" fill-rule="evenodd"></path><path fill="#000000" stroke="#000000" stroke-width="2.0" stroke-linecap="butt" d="m300.2224 512.7271l3.8116455 8.874756l2.7846985 -9.248535z" fill-rule="evenodd"></path><path fill="#000000" fill-opacity="0.0" d="m391.62466 472.9252l-87.4252 51.595795" fill-rule="nonzero"></path><path stroke="#000000" stroke-width="2.0" stroke-linejoin="round" stroke-linecap="butt" d="m391.62466 472.9252l-77.09073 45.496735" fill-rule="evenodd"></path><path fill="#000000" stroke="#000000" stroke-width="2.0" stroke-linecap="butt" d="m312.85492 515.57697l-6.137451 7.458008l9.495483 -1.7681274z" fill-rule="evenodd"></path><path fill="#fff2cc" d="m423.38583 286.20224l0 0c0 -3.780548 3.0647278 -6.845276 6.845276 -6.845276l92.703156 0c1.8154907 0 3.5565796 0.7211914 4.840332 2.0049133c1.2837524 1.2837524 2.0049438 3.0248718 2.0049438 4.8403625l0 27.38031c0 3.780548 -3.0647583 6.845276 -6.845276 6.845276l-92.703156 0l0 0c-3.780548 0 -6.845276 -3.0647278 -6.845276 -6.845276z" fill-rule="nonzero"></path><path stroke="#000000" stroke-width="2.0" stroke-linejoin="round" stroke-linecap="butt" d="m423.38583 286.20224l0 0c0 -3.780548 3.0647278 -6.845276 6.845276 -6.845276l92.703156 0c1.8154907 0 3.5565796 0.7211914 4.840332 2.0049133c1.2837524 1.2837524 2.0049438 3.0248718 2.0049438 4.8403625l0 27.38031c0 3.780548 -3.0647583 6.845276 -6.845276 6.845276l-92.703156 0l0 0c-3.780548 0 -6.845276 -3.0647278 -6.845276 -6.845276z" fill-rule="nonzero"></path><path fill="#000000" d="m459.03088 293.21863l2.734375 0l0 8.609375q0 1.6875 -0.296875 2.59375q-0.40625 1.1875 -1.453125 1.90625q-1.046875 0.71875 -2.765625 0.71875q-2.015625 0 -3.109375 -1.125q-1.078125 -1.125 -1.078125 -3.3125l2.578125 -0.296875q0.046875 1.171875 0.34375 1.65625q0.453125 0.734375 1.359375 0.734375q0.921875 0 1.296875 -0.515625q0.390625 -0.53125 0.390625 -2.1875l0 -8.78125zm17.719482 13.59375l-2.984375 0l-1.1875 -3.09375l-5.4375 0l-1.125 3.09375l-2.90625 0l5.296875 -13.59375l2.90625 0l5.4375 13.59375zm-5.046875 -5.375l-1.875 -5.046875l-1.84375 5.046875l3.71875 0zm6.301056 5.375l0 -13.59375l2.75 0l0 6.03125l5.546875 -6.03125l3.6875 0l-5.125 5.296875l5.40625 8.296875l-3.5625 0l-3.734375 -6.390625l-2.21875 2.28125l0 4.109375l-2.75 0zm21.660461 -2.421875l0 2.421875l-9.140625 0q0.15625 -1.375 0.890625 -2.59375q0.75 -1.234375 2.9375 -3.265625q1.765625 -1.640625 2.15625 -2.234375q0.546875 -0.796875 0.546875 -1.59375q0 -0.875 -0.46875 -1.34375q-0.46875 -0.46875 -1.296875 -0.46875q-0.8125 0 -1.296875 0.5q-0.484375 0.484375 -0.5625 1.625l-2.59375 -0.25q0.234375 -2.15625 1.453125 -3.09375q1.21875 -0.9375 3.0625 -0.9375q2.015625 0 3.15625 1.09375q1.15625 1.078125 1.15625 2.6875q0 0.921875 -0.328125 1.75q-0.328125 0.828125 -1.046875 1.734375q-0.46875 0.609375 -1.703125 1.75q-1.234375 1.125 -1.5625 1.5q-0.328125 0.359375 -0.53125 0.71875l5.171875 0z" fill-rule="nonzero"></path><path fill="#fff2cc" d="m423.38583 326.5277l0 0c0 -3.780548 3.0647278 -6.8453064 6.845276 -6.8453064l92.703156 0c1.8154907 0 3.5565796 0.7212219 4.840332 2.0049438c1.2837524 1.2837524 2.0049438 3.0248718 2.0049438 4.8403625l0 27.38028c0 3.780548 -3.0647583 6.8453064 -6.845276 6.8453064l-92.703156 0l0 0c-3.780548 0 -6.845276 -3.0647583 -6.845276 -6.8453064z" fill-rule="nonzero"></path><path stroke="#000000" stroke-width="2.0" stroke-linejoin="round" stroke-linecap="butt" d="m423.38583 326.5277l0 0c0 -3.780548 3.0647278 -6.8453064 6.845276 -6.8453064l92.703156 0c1.8154907 0 3.5565796 0.7212219 4.840332 2.0049438c1.2837524 1.2837524 2.0049438 3.0248718 2.0049438 4.8403625l0 27.38028c0 3.780548 -3.0647583 6.8453064 -6.845276 6.8453064l-92.703156 0l0 0c-3.780548 0 -6.845276 -3.0647583 -6.845276 -6.8453064z" fill-rule="nonzero"></path><path fill="#000000" d="m447.7281 342.71597l2.671875 -0.265625q0.234375 1.34375 0.96875 1.984375q0.75 0.625 2.0 0.625q1.328125 0 2.0 -0.5625q0.671875 -0.5625 0.671875 -1.3125q0 -0.484375 -0.28125 -0.8125q-0.28125 -0.34375 -0.984375 -0.59375q-0.484375 -0.171875 -2.203125 -0.59375q-2.203125 -0.546875 -3.09375 -1.34375q-1.265625 -1.125 -1.265625 -2.734375q0 -1.046875 0.59375 -1.953125q0.59375 -0.90625 1.703125 -1.375q1.109375 -0.46875 2.671875 -0.46875q2.5625 0 3.859375 1.125q1.296875 1.109375 1.359375 2.984375l-2.75 0.125q-0.171875 -1.046875 -0.75 -1.5q-0.578125 -0.46875 -1.75 -0.46875q-1.1875 0 -1.875 0.5q-0.4375 0.3125 -0.4375 0.84375q0 0.484375 0.421875 0.828125q0.515625 0.421875 2.515625 0.90625q2.0 0.46875 2.953125 0.984375q0.96875 0.5 1.515625 1.375q0.546875 0.875 0.546875 2.15625q0 1.171875 -0.65625 2.203125q-0.640625 1.015625 -1.828125 1.515625q-1.1875 0.484375 -2.96875 0.484375q-2.578125 0 -3.96875 -1.1875q-1.375 -1.1875 -1.640625 -3.46875zm16.193573 4.421875l0 -11.296875l-4.03125 0l0 -2.296875l10.8125 0l0 2.296875l-4.03125 0l0 11.296875l-2.75 0zm20.59909 0l-2.984375 0l-1.1875 -3.09375l-5.4375 0l-1.125 3.09375l-2.90625 0l5.296875 -13.59375l2.90625 0l5.4375 13.59375zm-5.046875 -5.375l-1.875 -5.046875l-1.84375 5.046875l3.71875 0zm9.316711 5.375l0 -11.296875l-4.03125 0l0 -2.296875l10.8125 0l0 2.296875l-4.03125 0l0 11.296875l-2.75 0zm7.6772156 -3.609375l2.515625 -0.3125q0.125 0.96875 0.65625 1.484375q0.53125 0.5 1.28125 0.5q0.796875 0 1.34375 -0.609375q0.5625 -0.609375 0.5625 -1.640625q0 -0.984375 -0.53125 -1.5625q-0.53125 -0.578125 -1.28125 -0.578125q-0.5 0 -1.203125 0.203125l0.28125 -2.125q1.0625 0.015625 1.609375 -0.46875q0.5625 -0.484375 0.5625 -1.296875q0 -0.6875 -0.40625 -1.09375q-0.40625 -0.40625 -1.078125 -0.40625q-0.671875 0 -1.140625 0.46875q-0.46875 0.46875 -0.578125 1.359375l-2.40625 -0.421875q0.25 -1.234375 0.75 -1.96875q0.515625 -0.734375 1.421875 -1.15625q0.90625 -0.421875 2.03125 -0.421875q1.90625 0 3.078125 1.21875q0.953125 1.0 0.953125 2.265625q0 1.796875 -1.953125 2.859375q1.15625 0.25 1.859375 1.125q0.703125 0.875 0.703125 2.109375q0 1.78125 -1.3125 3.046875q-1.296875 1.265625 -3.25 1.265625q-1.84375 0 -3.0625 -1.0625q-1.21875 -1.0625 -1.40625 -2.78125z" fill-rule="nonzero"></path><path fill="#f4cccc" d="m423.38583 602.5696l106.39371 0l0 63.77948l-106.39371 0z" fill-rule="nonzero"></path><path stroke="#000000" stroke-width="2.0" stroke-linejoin="round" stroke-linecap="butt" d="m423.38583 602.5696l106.39371 0l0 63.77948l-106.39371 0z" fill-rule="nonzero"></path><path fill="#000000" d="m440.9734 636.95746l2.671875 -0.265625q0.234375 1.34375 0.96875 1.984375q0.75 0.625 2.0 0.625q1.328125 0 2.0 -0.5625q0.671875 -0.5625 0.671875 -1.3125q0 -0.484375 -0.28125 -0.8125q-0.28125 -0.34375 -0.984375 -0.59375q-0.484375 -0.171875 -2.203125 -0.59375q-2.203125 -0.546875 -3.09375 -1.34375q-1.265625 -1.125 -1.265625 -2.734375q0 -1.046875 0.59375 -1.953125q0.59375 -0.90625 1.703125 -1.375q1.109375 -0.46875 2.671875 -0.46875q2.5625 0 3.859375 1.125q1.296875 1.109375 1.359375 2.984375l-2.75 0.125q-0.171875 -1.046875 -0.75 -1.5q-0.578125 -0.46875 -1.75 -0.46875q-1.1875 0 -1.875 0.5q-0.4375 0.3125 -0.4375 0.84375q0 0.484375 0.421875 0.828125q0.515625 0.421875 2.515625 0.90625q2.0 0.46875 2.953125 0.984375q0.96875 0.5 1.515625 1.375q0.546875 0.875 0.546875 2.15625q0 1.171875 -0.65625 2.203125q-0.640625 1.015625 -1.828125 1.515625q-1.1875 0.484375 -2.96875 0.484375q-2.578125 0 -3.96875 -1.1875q-1.375 -1.1875 -1.640625 -3.46875zm19.599823 4.421875l0 -1.46875q-0.53125 0.78125 -1.40625 1.234375q-0.875 0.453125 -1.859375 0.453125q-0.984375 0 -1.78125 -0.4375q-0.78125 -0.4375 -1.140625 -1.21875q-0.34375 -0.796875 -0.34375 -2.1875l0 -6.234375l2.609375 0l0 4.53125q0 2.078125 0.140625 2.546875q0.140625 0.46875 0.515625 0.75q0.390625 0.265625 0.96875 0.265625q0.671875 0 1.203125 -0.359375q0.53125 -0.375 0.71875 -0.90625q0.1875 -0.546875 0.1875 -2.671875l0 -4.15625l2.609375 0l0 9.859375l-2.421875 0zm7.4115906 0l-2.609375 0l0 -9.859375l2.421875 0l0 1.40625q0.625 -0.984375 1.109375 -1.296875q0.5 -0.328125 1.140625 -0.328125q0.890625 0 1.71875 0.5l-0.8125 2.265625q-0.65625 -0.421875 -1.21875 -0.421875q-0.546875 0 -0.9375 0.296875q-0.375 0.296875 -0.59375 1.09375q-0.21875 0.78125 -0.21875 3.296875l0 3.046875zm7.4790344 0l-3.96875 -9.859375l2.734375 0l1.84375 5.03125l0.546875 1.6875q0.21875 -0.640625 0.265625 -0.84375q0.125 -0.421875 0.28125 -0.84375l1.875 -5.03125l2.671875 0l-3.90625 9.859375l-2.34375 0zm7.656952 -11.1875l0 -2.40625l2.609375 0l0 2.40625l-2.609375 0zm0 11.1875l0 -9.859375l2.609375 0l0 9.859375l-2.609375 0zm7.902069 0l-3.96875 -9.859375l2.734375 0l1.84375 5.03125l0.546875 1.6875q0.21875 -0.640625 0.265625 -0.84375q0.125 -0.421875 0.28125 -0.84375l1.875 -5.03125l2.671875 0l-3.90625 9.859375l-2.34375 0zm9.610077 -6.84375l-2.359375 -0.4375q0.390625 -1.421875 1.359375 -2.109375q0.984375 -0.6875 2.90625 -0.6875q1.734375 0 2.59375 0.421875q0.859375 0.40625 1.203125 1.046875q0.34375 0.625 0.34375 2.328125l-0.03125 3.046875q0 1.296875 0.125 1.921875q0.125 0.609375 0.46875 1.3125l-2.578125 0q-0.09375 -0.265625 -0.25 -0.765625q-0.0625 -0.234375 -0.09375 -0.3125q-0.65625 0.65625 -1.421875 0.984375q-0.765625 0.3125 -1.625 0.3125q-1.515625 0 -2.40625 -0.8125q-0.875 -0.828125 -0.875 -2.09375q0 -0.84375 0.390625 -1.484375q0.40625 -0.65625 1.125 -1.0q0.71875 -0.359375 2.078125 -0.625q1.828125 -0.328125 2.53125 -0.625l0 -0.265625q0 -0.75 -0.375 -1.0625q-0.359375 -0.328125 -1.390625 -0.328125q-0.703125 0 -1.09375 0.28125q-0.390625 0.265625 -0.625 0.953125zm3.484375 2.109375q-0.5 0.171875 -1.59375 0.40625q-1.078125 0.234375 -1.40625 0.453125q-0.515625 0.359375 -0.515625 0.921875q0 0.546875 0.40625 0.953125q0.40625 0.390625 1.046875 0.390625q0.703125 0 1.34375 -0.46875q0.46875 -0.359375 0.625 -0.859375q0.09375 -0.34375 0.09375 -1.28125l0 -0.515625zm4.9382324 4.734375l0 -13.59375l2.609375 0l0 13.59375l-2.609375 0z" fill-rule="nonzero"></path><path fill="#f4cccc" d="m44.412075 602.5696l106.39369 0l0 63.77948l-106.39369 0z" fill-rule="nonzero"></path><path stroke="#000000" stroke-width="2.0" stroke-linejoin="round" stroke-linecap="butt" d="m44.412075 602.5696l106.39369 0l0 63.77948l-106.39369 0z" fill-rule="nonzero"></path><path fill="#000000" d="m72.66817 636.37933l0 -2.296875l5.921875 0l0 5.421875q-0.859375 0.828125 -2.5 1.46875q-1.640625 0.640625 -3.3125 0.640625q-2.140625 0 -3.734375 -0.890625q-1.578125 -0.90625 -2.375 -2.5625q-0.796875 -1.671875 -0.796875 -3.625q0 -2.125 0.890625 -3.78125q0.890625 -1.65625 2.609375 -2.53125q1.3125 -0.671875 3.25 -0.671875q2.546875 0 3.96875 1.0625q1.421875 1.0625 1.828125 2.9375l-2.734375 0.5q-0.28125 -1.0 -1.078125 -1.578125q-0.796875 -0.578125 -1.984375 -0.578125q-1.796875 0 -2.859375 1.140625q-1.0625 1.140625 -1.0625 3.390625q0 2.421875 1.078125 3.640625q1.078125 1.203125 2.828125 1.203125q0.859375 0 1.71875 -0.34375q0.875 -0.34375 1.5 -0.828125l0 -1.71875l-3.15625 0zm10.667679 5.0l-2.609375 0l0 -9.859375l2.421875 0l0 1.40625q0.625 -0.984375 1.109375 -1.296875q0.5 -0.328125 1.140625 -0.328125q0.890625 0 1.71875 0.5l-0.8125 2.265625q-0.65625 -0.421875 -1.21875 -0.421875q-0.546875 0 -0.9375 0.296875q-0.375 0.296875 -0.59375 1.09375q-0.21875 0.78125 -0.21875 3.296875l0 3.046875zm4.166519 -5.0625q0 -1.296875 0.640625 -2.515625q0.640625 -1.21875 1.8125 -1.859375q1.171875 -0.640625 2.609375 -0.640625q2.25 0 3.671875 1.453125q1.421875 1.453125 1.421875 3.671875q0 2.234375 -1.4375 3.703125q-1.4375 1.46875 -3.625 1.46875q-1.359375 0 -2.59375 -0.609375q-1.21875 -0.609375 -1.859375 -1.796875q-0.640625 -1.1875 -0.640625 -2.875zm2.671875 0.140625q0 1.46875 0.6875 2.25q0.703125 0.765625 1.71875 0.765625q1.015625 0 1.703125 -0.765625q0.703125 -0.78125 0.703125 -2.265625q0 -1.453125 -0.703125 -2.234375q-0.6875 -0.78125 -1.703125 -0.78125q-1.015625 0 -1.71875 0.78125q-0.6875 0.78125 -0.6875 2.25zm11.161606 4.921875l-3.125 -9.859375l2.53125 0l1.859375 6.46875l1.6875 -6.46875l2.515625 0l1.6406174 6.46875l1.890625 -6.46875l2.5625 0l-3.15625 9.859375l-2.5156174 0l-1.6875 -6.34375l-1.671875 6.34375l-2.53125 0zm17.183296 -9.859375l0 2.078125l-1.78125 0l0 3.984375q0 1.203125 0.046875 1.40625q0.0625 0.1875 0.234375 0.328125q0.1875 0.125 0.453125 0.125q0.359375 0 1.046875 -0.25l0.21875 2.015625q-0.90625 0.390625 -2.0625 0.390625q-0.703125 0 -1.265625 -0.234375q-0.5625 -0.234375 -0.828125 -0.609375q-0.265625 -0.375 -0.375 -1.015625q-0.078125 -0.453125 -0.078125 -1.84375l0 -4.296875l-1.203125 0l0 -2.078125l1.203125 0l0 -1.953125l2.609375 -1.515625l0 3.46875l1.78125 0zm4.306427 -3.734375l0 5.0q1.25 -1.484375 3.015625 -1.484375q0.890625 0 1.609375 0.34375q0.7343826 0.328125 1.0937576 0.84375q0.375 0.515625 0.5 1.15625q0.140625 0.625 0.140625 1.953125l0 5.78125l-2.6093826 0l0 -5.203125q0 -1.546875 -0.15625 -1.96875q-0.140625 -0.421875 -0.515625 -0.65625q-0.375 -0.25 -0.9375 -0.25q-0.65625 0 -1.171875 0.3125q-0.5 0.3125 -0.734375 0.953125q-0.234375 0.640625 -0.234375 1.875l0 4.9375l-2.609375 0l0 -13.59375l2.609375 0z" fill-rule="nonzero"></path><path fill="#000000" fill-opacity="0.0" d="m71.0105 396.43045l26.598427 206.13913" fill-rule="nonzero"></path><path stroke="#000000" stroke-width="2.0" stroke-linejoin="round" stroke-linecap="butt" d="m71.0105 396.43045l25.062775 194.23776" fill-rule="evenodd"></path><path fill="#000000" stroke="#000000" stroke-width="2.0" stroke-linecap="butt" d="m92.796974 591.09094l4.43779 8.578857l2.1148148 -9.424316z" fill-rule="evenodd"></path><path fill="#000000" fill-opacity="0.0" d="m476.58267 360.7533l0 241.81628" fill-rule="nonzero"></path><path stroke="#000000" stroke-width="2.0" stroke-linejoin="round" stroke-linecap="butt" d="m476.58267 360.7533l0 229.81628" fill-rule="evenodd"></path><path fill="#000000" stroke="#000000" stroke-width="2.0" stroke-linecap="butt" d="m473.2792 590.5696l3.3034668 9.076172l3.3034668 -9.076172z" fill-rule="evenodd"></path><path fill="#000000" fill-opacity="0.0" d="m304.19946 588.30054l119.18637 46.158752" fill-rule="nonzero"></path><path stroke="#000000" stroke-width="2.0" stroke-linejoin="round" stroke-linecap="butt" d="m304.19946 588.30054l107.99625 41.825012" fill-rule="evenodd"></path><path fill="#000000" stroke="#000000" stroke-width="2.0" stroke-linecap="butt" d="m411.0027 633.2061l9.656677 0.19726562l-7.27063 -6.3583374z" fill-rule="evenodd"></path><path fill="#000000" fill-opacity="0.0" d="m304.19946 588.30054l-153.39369 46.158752" fill-rule="nonzero"></path><path stroke="#000000" stroke-width="2.0" stroke-linejoin="round" stroke-linecap="butt" d="m304.19946 588.30054l-141.90268 42.700928" fill-rule="evenodd"></path><path fill="#000000" stroke="#000000" stroke-width="2.0" stroke-linecap="butt" d="m161.34488 627.83813l-7.739319 5.7786865l9.643127 0.54797363z" fill-rule="evenodd"></path><path fill="#000000" fill-opacity="0.0" d="m204.0 472.9252l-106.391075 129.64438" fill-rule="nonzero"></path><path stroke="#000000" stroke-width="2.0" stroke-linejoin="round" stroke-linecap="butt" d="m204.0 472.9252l-98.77859 120.36801" fill-rule="evenodd"></path><path fill="#000000" stroke="#000000" stroke-width="2.0" stroke-linecap="butt" d="m102.667755 591.19763l-3.2040482 9.111755l8.311371 -4.920532z" fill-rule="evenodd"></path><path fill="#fff2cc" d="m243.75853 56.015884l0 0c0 -3.7805443 3.064743 -6.8452797 6.845276 -6.8452797l92.70314 0c1.8154907 0 3.55661 0.7211952 4.8403625 2.0049362c1.2837219 1.2837372 2.0049133 3.0248642 2.0049133 4.8403435l0 27.380302c0 3.780548 -3.0647278 6.8452835 -6.845276 6.8452835l-92.70314 0l0 0c-3.7805328 0 -6.845276 -3.0647354 -6.845276 -6.8452835z" fill-rule="nonzero"></path><path stroke="#000000" stroke-width="2.0" stroke-linejoin="round" stroke-linecap="butt" d="m243.75853 56.015884l0 0c0 -3.7805443 3.064743 -6.8452797 6.845276 -6.8452797l92.70314 0c1.8154907 0 3.55661 0.7211952 4.8403625 2.0049362c1.2837219 1.2837372 2.0049133 3.0248642 2.0049133 4.8403435l0 27.380302c0 3.780548 -3.0647278 6.8452835 -6.845276 6.8452835l-92.70314 0l0 0c-3.7805328 0 -6.845276 -3.0647354 -6.845276 -6.8452835z" fill-rule="nonzero"></path><path fill="#000000" d="m276.44836 71.62604l2.671875 0.84375q-0.609375 2.21875 -2.046875 3.3125q-1.421875 1.078125 -3.609375 1.078125q-2.703125 0 -4.453125 -1.84375q-1.734375 -1.859375 -1.734375 -5.078125q0 -3.390625 1.75 -5.265625q1.75 -1.875 4.609375 -1.875q2.5 0 4.046875 1.46875q0.9375 0.875 1.390625 2.5l-2.71875 0.65625q-0.234375 -1.0625 -1.0 -1.671875q-0.765625 -0.609375 -1.859375 -0.609375q-1.515625 0 -2.453125 1.09375q-0.9375 1.078125 -0.9375 3.5q0 2.578125 0.921875 3.6875q0.921875 1.09375 2.40625 1.09375q1.109375 0 1.890625 -0.6875q0.78125 -0.703125 1.125 -2.203125zm4.7698364 -8.59375l5.015625 0q1.703125 0 2.59375 0.25q1.1875 0.359375 2.046875 1.265625q0.859375 0.890625 1.296875 2.203125q0.453125 1.296875 0.453125 3.203125q0 1.6875 -0.421875 2.890625q-0.515625 1.484375 -1.453125 2.40625q-0.71875 0.703125 -1.9375 1.09375q-0.90625 0.28125 -2.421875 0.28125l-5.171875 0l0 -13.59375zm2.75 2.296875l0 9.0l2.046875 0q1.140625 0 1.65625 -0.125q0.671875 -0.171875 1.109375 -0.5625q0.4375 -0.40625 0.71875 -1.3125q0.28125 -0.921875 0.28125 -2.5q0 -1.578125 -0.28125 -2.421875q-0.28125 -0.84375 -0.78125 -1.3125q-0.5 -0.46875 -1.265625 -0.640625q-0.578125 -0.125 -2.25 -0.125l-1.234375 0zm10.160431 0.296875l0 -2.421875l8.90625 0l0 1.90625q-1.09375 1.078125 -2.234375 3.109375q-1.140625 2.03125 -1.75 4.328125q-0.59375 2.28125 -0.578125 4.078125l-2.515625 0q0.0625 -2.828125 1.15625 -5.75q1.109375 -2.9375 2.9375 -5.25l-5.921875 0zm10.422607 7.859375l2.53125 -0.28125q0.09375 0.765625 0.484375 1.140625q0.390625 0.375 1.03125 0.375q0.796875 0 1.359375 -0.734375q0.578125 -0.75 0.734375 -3.09375q-0.984375 1.140625 -2.46875 1.140625q-1.59375 0 -2.765625 -1.234375q-1.15625 -1.234375 -1.15625 -3.234375q0 -2.0625 1.21875 -3.328125q1.234375 -1.265625 3.140625 -1.265625q2.0625 0 3.390625 1.609375q1.328125 1.59375 1.328125 5.25q0 3.734375 -1.390625 5.390625q-1.375 1.640625 -3.59375 1.640625q-1.59375 0 -2.578125 -0.84375q-0.984375 -0.84375 -1.265625 -2.53125zm5.90625 -5.703125q0 -1.265625 -0.578125 -1.953125q-0.578125 -0.703125 -1.34375 -0.703125q-0.71875 0 -1.203125 0.578125q-0.484375 0.5625 -0.484375 1.859375q0 1.328125 0.515625 1.953125q0.53125 0.609375 1.3125 0.609375q0.75 0 1.265625 -0.59375q0.515625 -0.59375 0.515625 -1.75zm17.250702 8.84375l-2.984375 0l-1.1875 -3.09375l-5.4375 0l-1.125 3.09375l-2.90625 0l5.296875 -13.59375l2.90625 0l5.4375 13.59375zm-5.046875 -5.375l-1.875 -5.046875l-1.84375 5.046875l3.71875 0z" fill-rule="nonzero"></path><path fill="#fff2cc" d="m124.20604 114.99489l0 0c0 -3.780548 3.0647354 -6.8452835 6.845276 -6.8452835l92.70314 0c1.8154755 0 3.55661 0.72119904 4.8403473 2.0049362c1.2837372 1.2837448 2.0049286 3.0248642 2.0049286 4.8403473l0 27.38031c0 3.7805328 -3.0647278 6.845276 -6.845276 6.845276l-92.70314 0l0 0c-3.7805405 0 -6.845276 -3.064743 -6.845276 -6.845276z" fill-rule="nonzero"></path><path stroke="#000000" stroke-width="2.0" stroke-linejoin="round" stroke-linecap="butt" d="m124.20604 114.99489l0 0c0 -3.780548 3.0647354 -6.8452835 6.845276 -6.8452835l92.70314 0c1.8154755 0 3.55661 0.72119904 4.8403473 2.0049362c1.2837372 1.2837448 2.0049286 3.0248642 2.0049286 4.8403473l0 27.38031c0 3.7805328 -3.0647278 6.845276 -6.845276 6.845276l-92.70314 0l0 0c-3.7805405 0 -6.845276 -3.064743 -6.845276 -6.845276z" fill-rule="nonzero"></path><path fill="#000000" d="m160.19977 135.60504l0 -13.484375l2.75 0l0 11.1875l6.828125 0l0 2.296875l-9.578125 0zm14.895981 0l0 -5.71875l-4.984375 -7.875l3.21875 0l3.203125 5.375l3.140625 -5.375l3.15625 0l-5.0 7.890625l0 5.703125l-2.734375 0zm8.896698 0l0 -13.59375l2.671875 0l5.578125 9.078125l0 -9.078125l2.546875 0l0 13.59375l-2.765625 0l-5.46875 -8.875l0 8.875l-2.5625 0z" fill-rule="nonzero"></path><path fill="#fff2cc" d="m162.27559 172.98833l0 0c0 -3.780548 3.064743 -6.845276 6.845276 -6.845276l92.70314 0c1.8154907 0 3.55661 0.7211914 4.8403625 2.0049286c1.2837219 1.2837372 2.0049133 3.0248718 2.0049133 4.8403473l0 27.38031c0 3.7805328 -3.0647278 6.845276 -6.845276 6.845276l-92.70314 0l0 0c-3.7805328 0 -6.845276 -3.064743 -6.845276 -6.845276z" fill-rule="nonzero"></path><path stroke="#000000" stroke-width="2.0" stroke-linejoin="round" stroke-linecap="butt" d="m162.27559 172.98833l0 0c0 -3.780548 3.064743 -6.845276 6.845276 -6.845276l92.70314 0c1.8154907 0 3.55661 0.7211914 4.8403625 2.0049286c1.2837219 1.2837372 2.0049133 3.0248718 2.0049133 4.8403473l0 27.38031c0 3.7805328 -3.0647278 6.845276 -6.845276 6.845276l-92.70314 0l0 0c-3.7805328 0 -6.845276 -3.064743 -6.845276 -6.845276z" fill-rule="nonzero"></path><path fill="#000000" d="m196.97989 189.1766l2.671875 -0.265625q0.234375 1.34375 0.96875 1.984375q0.75 0.625 2.0 0.625q1.328125 0 2.0 -0.5625q0.671875 -0.5625 0.671875 -1.3125q0 -0.484375 -0.28125 -0.8125q-0.28125 -0.34375 -0.984375 -0.59375q-0.484375 -0.171875 -2.203125 -0.59375q-2.203125 -0.546875 -3.09375 -1.34375q-1.265625 -1.125 -1.265625 -2.734375q0 -1.046875 0.59375 -1.953125q0.59375 -0.90625 1.703125 -1.375q1.109375 -0.46875 2.671875 -0.46875q2.5625 0 3.859375 1.125q1.296875 1.109375 1.359375 2.984375l-2.75 0.125q-0.171875 -1.046875 -0.75 -1.5q-0.578125 -0.46875 -1.75 -0.46875q-1.1875 0 -1.875 0.5q-0.4375 0.3125 -0.4375 0.84375q0 0.484375 0.421875 0.828125q0.515625 0.421875 2.515625 0.90625q2.0 0.46875 2.953125 0.984375q0.96875 0.5 1.515625 1.375q0.546875 0.875 0.546875 2.15625q0 1.171875 -0.65625 2.203125q-0.640625 1.015625 -1.828125 1.515625q-1.1875 0.484375 -2.96875 0.484375q-2.578125 0 -3.96875 -1.1875q-1.375 -1.1875 -1.640625 -3.46875zm16.709198 4.421875l0 -5.71875l-4.984375 -7.875l3.21875 0l3.203125 5.375l3.140625 -5.375l3.15625 0l-5.0 7.890625l0 5.703125l-2.734375 0zm8.912323 0l0 -13.59375l2.75 0l0 6.03125l5.546875 -6.03125l3.6875 0l-5.125 5.296875l5.40625 8.296875l-3.5625 0l-3.734375 -6.390625l-2.21875 2.28125l0 4.109375l-2.75 0z" fill-rule="nonzero"></path><path fill="#fff2cc" d="m203.75853 236.91615l0 0c0 -3.780548 3.064743 -6.845291 6.845276 -6.845291l92.70314 0c1.8154907 0 3.55661 0.72120667 4.8403625 2.0049438c1.2837219 1.2837372 2.0049133 3.0248566 2.0049133 4.8403473l0 27.380295c0 3.780548 -3.0647278 6.845276 -6.845276 6.845276l-92.70314 0l0 0c-3.7805328 0 -6.845276 -3.0647278 -6.845276 -6.845276z" fill-rule="nonzero"></path><path stroke="#000000" stroke-width="2.0" stroke-linejoin="round" stroke-linecap="butt" d="m203.75853 236.91615l0 0c0 -3.780548 3.064743 -6.845291 6.845276 -6.845291l92.70314 0c1.8154907 0 3.55661 0.72120667 4.8403625 2.0049438c1.2837219 1.2837372 2.0049133 3.0248566 2.0049133 4.8403473l0 27.380295c0 3.780548 -3.0647278 6.845276 -6.845276 6.845276l-92.70314 0l0 0c-3.7805328 0 -6.845276 -3.0647278 -6.845276 -6.845276z" fill-rule="nonzero"></path><path fill="#000000" d="m239.17506 243.93254l5.4375 0q1.609375 0 2.40625 0.140625q0.796875 0.125 1.421875 0.546875q0.625 0.421875 1.03125 1.140625q0.421875 0.703125 0.421875 1.59375q0 0.953125 -0.515625 1.75q-0.5 0.796875 -1.390625 1.1875q1.25 0.375 1.90625 1.25q0.671875 0.859375 0.671875 2.046875q0 0.921875 -0.4375 1.796875q-0.421875 0.87501526 -1.171875 1.4062653q-0.75 0.515625 -1.84375 0.640625q-0.6875 0.078125 -3.3125 0.09375l-4.625 0l0 -13.593765zm2.75 2.25l0 3.15625l1.796875 0q1.609375 0 2.0 -0.046875q0.703125 -0.09375 1.09375 -0.484375q0.40625 -0.40625 0.40625 -1.0625q0 -0.640625 -0.34375 -1.03125q-0.34375 -0.390625 -1.03125 -0.484375q-0.40625 -0.046875 -2.34375 -0.046875l-1.578125 0zm0 5.421875l0 3.625l2.546875 0q1.484375 0 1.875 -0.078125q0.609375 -0.109375 1.0 -0.53125q0.390625 -0.4375 0.390625 -1.171875q0 -0.609375 -0.296875 -1.03125q-0.296875 -0.421875 -0.859375 -0.609375q-0.5625 -0.203125 -2.4375 -0.203125l-2.21875 0zm13.769821 5.9218903l0 -11.29689l-4.03125 0l0 -2.296875l10.8125 0l0 2.296875l-4.03125 0l0 11.29689l-2.75 0zm8.380371 0l0 -13.593765l2.75 0l0 6.03125l5.546875 -6.03125l3.6875 0l-5.125 5.296875l5.40625 8.29689l-3.5625 0l-3.734375 -6.3906403l-2.21875 2.28125l0 4.1093903l-2.75 0z" fill-rule="nonzero"></path><path fill="#000000" fill-opacity="0.0" d="m177.4029 108.149605l-79.79397 -36.79265" fill-rule="nonzero"></path><path stroke="#000000" stroke-width="2.0" stroke-linejoin="round" stroke-linecap="butt" d="m177.4029 108.149605l-68.89662 -31.76793" fill-rule="evenodd"></path><path fill="#000000" stroke="#000000" stroke-width="2.0" stroke-linecap="butt" d="m109.88952 73.38176l-9.62545 -0.8005295l6.8589554 6.8003616z" fill-rule="evenodd"></path><path fill="#000000" fill-opacity="0.0" d="m177.4029 149.22047l38.06955 16.922577" fill-rule="nonzero"></path><path stroke="#000000" stroke-width="2.0" stroke-linejoin="round" stroke-linecap="butt" d="m177.4029 149.22047l27.104095 12.048248" fill-rule="evenodd"></path><path fill="#000000" stroke="#000000" stroke-width="2.0" stroke-linecap="butt" d="m203.16515 164.28738l9.635559 0.6680298l-6.9518585 -6.705353z" fill-rule="evenodd"></path><path fill="#000000" fill-opacity="0.0" d="m215.47244 207.21391l41.48294 22.856949" fill-rule="nonzero"></path><path stroke="#000000" stroke-width="2.0" stroke-linejoin="round" stroke-linecap="butt" d="m215.47244 207.21391l30.972763 17.065887" fill-rule="evenodd"></path><path fill="#000000" stroke="#000000" stroke-width="2.0" stroke-linecap="butt" d="m244.851 227.17313l9.543579 1.4867401l-6.3551483 -7.2733917z" fill-rule="evenodd"></path><path fill="#cfe2f3" d="m391.62466 42.82021l106.39371 0l0 63.77953l-106.39371 0z" fill-rule="nonzero"></path><path stroke="#000000" stroke-width="2.0" stroke-linejoin="round" stroke-linecap="butt" d="m391.62466 42.82021l106.39371 0l0 63.77953l-106.39371 0z" fill-rule="nonzero"></path><path fill="#000000" d="m417.08643 81.629974l0 -13.59375l2.75 0l0 13.59375l-2.75 0zm5.261444 0l0 -13.59375l4.421875 0q2.5 0 3.265625 0.203125q1.15625 0.296875 1.9375 1.328125q0.796875 1.015625 0.796875 2.640625q0 1.25 -0.453125 2.109375q-0.453125 0.859375 -1.15625 1.34375q-0.703125 0.484375 -1.421875 0.640625q-0.984375 0.203125 -2.84375 0.203125l-1.796875 0l0 5.125l-2.75 0zm2.75 -11.296875l0 3.859375l1.5 0q1.625 0 2.171875 -0.21875q0.546875 -0.21875 0.859375 -0.671875q0.3125 -0.453125 0.3125 -1.046875q0 -0.75 -0.4375 -1.234375q-0.4375 -0.484375 -1.09375 -0.59375q-0.5 -0.09375 -1.984375 -0.09375l-1.328125 0zm9.037323 7.6875l2.515625 -0.3125q0.125 0.96875 0.65625 1.484375q0.53125 0.5 1.28125 0.5q0.796875 0 1.34375 -0.609375q0.5625 -0.609375 0.5625 -1.640625q0 -0.984375 -0.53125 -1.5625q-0.53125 -0.578125 -1.28125 -0.578125q-0.5 0 -1.203125 0.203125l0.28125 -2.125q1.0625 0.015625 1.609375 -0.46875q0.5625 -0.484375 0.5625 -1.296875q0 -0.6875 -0.40625 -1.09375q-0.40625 -0.40625 -1.078125 -0.40625q-0.671875 0 -1.140625 0.46875q-0.46875 0.46875 -0.578125 1.359375l-2.40625 -0.421875q0.25 -1.234375 0.75 -1.96875q0.515625 -0.734375 1.421875 -1.15625q0.90625 -0.421875 2.03125 -0.421875q1.90625 0 3.078125 1.21875q0.953125 1.0 0.953125 2.265625q0 1.796875 -1.953125 2.859375q1.15625 0.25 1.859375 1.125q0.703125 0.875 0.703125 2.109375q0 1.78125 -1.3125 3.046875q-1.296875 1.265625 -3.25 1.265625q-1.84375 0 -3.0625 -1.0625q-1.21875 -1.0625 -1.40625 -2.78125zm10.735077 -0.015625l0 -2.609375l5.109375 0l0 2.609375l-5.109375 0zm15.212677 -1.375l2.671875 0.84375q-0.609375 2.21875 -2.046875 3.3125q-1.421875 1.078125 -3.609375 1.078125q-2.703125 0 -4.453125 -1.84375q-1.734375 -1.859375 -1.734375 -5.078125q0 -3.390625 1.75 -5.265625q1.75 -1.875 4.609375 -1.875q2.5 0 4.046875 1.46875q0.9375 0.875 1.390625 2.5l-2.71875 0.65625q-0.234375 -1.0625 -1.0 -1.671875q-0.765625 -0.609375 -1.859375 -0.609375q-1.515625 0 -2.453125 1.09375q-0.9375 1.078125 -0.9375 3.5q0 2.578125 0.921875 3.6875q0.921875 1.09375 2.40625 1.09375q1.109375 0 1.890625 -0.6875q0.78125 -0.703125 1.125 -2.203125zm6.7073364 -1.84375l-2.359375 -0.4375q0.390625 -1.421875 1.359375 -2.109375q0.984375 -0.6875 2.90625 -0.6875q1.734375 0 2.59375 0.421875q0.859375 0.40625 1.203125 1.046875q0.34375 0.625 0.34375 2.328125l-0.03125 3.046875q0 1.296875 0.125 1.921875q0.125 0.609375 0.46875 1.3125l-2.578125 0q-0.09375 -0.265625 -0.25 -0.765625q-0.0625 -0.234375 -0.09375 -0.3125q-0.65625 0.65625 -1.421875 0.984375q-0.765625 0.3125 -1.625 0.3125q-1.515625 0 -2.40625 -0.8125q-0.875 -0.828125 -0.875 -2.09375q0 -0.84375 0.390625 -1.484375q0.40625 -0.65625 1.125 -1.0q0.71875 -0.359375 2.078125 -0.625q1.828125 -0.328125 2.53125 -0.625l0 -0.265625q0 -0.75 -0.375 -1.0625q-0.359375 -0.328125 -1.390625 -0.328125q-0.703125 0 -1.09375 0.28125q-0.390625 0.265625 -0.625 0.953125zm3.484375 2.109375q-0.5 0.171875 -1.59375 0.40625q-1.078125 0.234375 -1.40625 0.453125q-0.515625 0.359375 -0.515625 0.921875q0 0.546875 0.40625 0.953125q0.40625 0.390625 1.046875 0.390625q0.703125 0 1.34375 -0.46875q0.46875 -0.359375 0.625 -0.859375q0.09375 -0.34375 0.09375 -1.28125l0 -0.515625z" fill-rule="nonzero"></path><path fill="#000000" fill-opacity="0.0" d="m310.15222 250.6063l134.66931 -144.00656" fill-rule="nonzero"></path><path stroke="#000000" stroke-width="2.0" stroke-linejoin="round" stroke-linecap="butt" d="m310.15222 250.6063l126.47293 -135.24188" fill-rule="evenodd"></path><path fill="#000000" stroke="#000000" stroke-width="2.0" stroke-linecap="butt" d="m439.03796 117.62077l3.786499 -8.885521l-8.612122 4.3727875z" fill-rule="evenodd"></path><path fill="#000000" fill-opacity="0.0" d="m444.82153 106.59974l-104.17456 207.9357" fill-rule="nonzero"></path><path stroke="#000000" stroke-width="2.0" stroke-linejoin="round" stroke-linecap="butt" d="m444.82153 106.59974l-98.79947 197.20685" fill-rule="evenodd"></path><path fill="#000000" stroke="#000000" stroke-width="2.0" stroke-linecap="butt" d="m343.06854 302.32687l-1.111908 9.594482l7.018982 -6.635071z" fill-rule="evenodd"></path><path fill="#fff2cc" d="m17.813648 323.2731l0 0c0 -3.780548 3.0647373 -6.845276 6.8452816 -6.845276l92.70314 0c1.8154831 0 3.5566025 0.7211914 4.8403397 2.0049438c1.2837448 1.2837219 2.0049362 3.0248413 2.0049362 4.840332l0 27.38031c0 3.780548 -3.0647354 6.845276 -6.845276 6.845276l-92.70314 0l0 0c-3.7805443 0 -6.8452816 -3.0647278 -6.8452816 -6.845276z" fill-rule="nonzero"></path><path stroke="#000000" stroke-width="2.0" stroke-linejoin="round" stroke-linecap="butt" d="m17.813648 323.2731l0 0c0 -3.780548 3.0647373 -6.845276 6.8452816 -6.845276l92.70314 0c1.8154831 0 3.5566025 0.7211914 4.8403397 2.0049438c1.2837448 1.2837219 2.0049362 3.0248413 2.0049362 4.840332l0 27.38031c0 3.780548 -3.0647354 6.845276 -6.845276 6.845276l-92.70314 0l0 0c-3.7805443 0 -6.8452816 -3.0647278 -6.8452816 -6.845276z" fill-rule="nonzero"></path><path fill="#000000" d="m38.17478 343.88324l0 -13.59375l4.421875 0q2.5 0 3.265625 0.203125q1.15625 0.296875 1.9375 1.328125q0.796875 1.015625 0.796875 2.640625q0 1.25 -0.453125 2.109375q-0.453125 0.859375 -1.15625 1.34375q-0.703125 0.484375 -1.421875 0.640625q-0.984375 0.203125 -2.84375 0.203125l-1.796875 0l0 5.125l-2.75 0zm2.75 -11.296875l0 3.859375l1.5 0q1.625 0 2.171875 -0.21875q0.546875 -0.21875 0.859375 -0.671875q0.3125 -0.453125 0.3125 -1.046875q0 -0.75 -0.4375 -1.234375q-0.4375 -0.484375 -1.09375 -0.59375q-0.5 -0.09375 -1.984375 -0.09375l-1.328125 0zm9.615448 11.296875l0 -13.59375l2.75 0l0 13.59375l-2.75 0zm5.308304 0l0 -13.59375l2.75 0l0 6.03125l5.546875 -6.03125l3.6875 0l-5.125 5.296875l5.40625 8.296875l-3.5625 0l-3.734375 -6.390625l-2.21875 2.28125l0 4.109375l-2.75 0zm12.769821 -3.609375l2.515625 -0.3125q0.125 0.96875 0.65625 1.484375q0.53125 0.5 1.28125 0.5q0.796875 0 1.34375 -0.609375q0.5625 -0.609375 0.5625 -1.640625q0 -0.984375 -0.53125 -1.5625q-0.53125 -0.578125 -1.28125 -0.578125q-0.5 0 -1.203125 0.203125l0.28125 -2.125q1.0625 0.015625 1.609375 -0.46875q0.5625 -0.484375 0.5625 -1.296875q0 -0.6875 -0.40625 -1.09375q-0.40625 -0.40625 -1.078125 -0.40625q-0.671875 0 -1.140625 0.46875q-0.46875 0.46875 -0.578125 1.359375l-2.40625 -0.421875q0.25 -1.234375 0.75 -1.96875q0.515625 -0.734375 1.421875 -1.15625q0.90625 -0.421875 2.03125 -0.421875q1.90625 0 3.078125 1.21875q0.953125 1.0 0.953125 2.265625q0 1.796875 -1.953125 2.859375q1.15625 0.25 1.859375 1.125q0.703125 0.875 0.703125 2.109375q0 1.78125 -1.3125 3.046875q-1.296875 1.265625 -3.25 1.265625q-1.84375 0 -3.0625 -1.0625q-1.21875 -1.0625 -1.40625 -2.78125zm19.735092 -1.390625l2.671875 0.84375q-0.609375 2.21875 -2.046875 3.3125q-1.421875 1.078125 -3.609375 1.078125q-2.703125 0 -4.453125 -1.84375q-1.734375 -1.859375 -1.734375 -5.078125q0 -3.390625 1.75 -5.265625q1.75 -1.875 4.609375 -1.875q2.5 0 4.046875 1.46875q0.9375 0.875 1.390625 2.5l-2.71875 0.65625q-0.234375 -1.0625 -1.0 -1.671875q-0.765625 -0.609375 -1.859375 -0.609375q-1.515625 0 -2.453125 1.09375q-0.9375 1.078125 -0.9375 3.5q0 2.578125 0.921875 3.6875q0.921875 1.09375 2.40625 1.09375q1.109375 0 1.890625 -0.6875q0.78125 -0.703125 1.125 -2.203125zm4.769821 -8.59375l5.015625 0q1.703125 0 2.59375 0.25q1.1875 0.359375 2.046875 1.265625q0.859375 0.890625 1.296875 2.203125q0.453125 1.296875 0.453125 3.203125q0 1.6875 -0.421875 2.890625q-0.515625 1.484375 -1.453125 2.40625q-0.71875 0.703125 -1.9375 1.09375q-0.90625 0.28125 -2.421875 0.28125l-5.171875 0l0 -13.59375zm2.75 2.296875l0 9.0l2.046875 0q1.140625 0 1.65625 -0.125q0.671875 -0.171875 1.109375 -0.5625q0.4375 -0.40625 0.71875 -1.3125q0.28125 -0.921875 0.28125 -2.5q0 -1.578125 -0.28125 -2.421875q-0.28125 -0.84375 -0.78125 -1.3125q-0.5 -0.46875 -1.265625 -0.640625q-0.578125 -0.125 -2.25 -0.125l-1.234375 0z" fill-rule="nonzero"></path></g></svg>

